<?xml version="1.0" encoding="UTF-8" standalone="no"?>
<!-- Created with Inkscape (http://www.inkscape.org/) -->

<svg
   xmlns:dc="http://purl.org/dc/elements/1.1/"
   xmlns:cc="http://creativecommons.org/ns#"
   xmlns:rdf="http://www.w3.org/1999/02/22-rdf-syntax-ns#"
   xmlns:svg="http://www.w3.org/2000/svg"
   xmlns="http://www.w3.org/2000/svg"
   xmlns:sodipodi="http://sodipodi.sourceforge.net/DTD/sodipodi-0.dtd"
   xmlns:inkscape="http://www.inkscape.org/namespaces/inkscape"
   width="171.42856"
   height="85.592621"
   id="svg2"
   version="1.1"
   inkscape:version="0.48.5 r10040"
   sodipodi:docname="mag_glass.png">
  <defs
     id="defs4" />
  <sodipodi:namedview
     id="base"
     pagecolor="#ffffff"
     bordercolor="#666666"
     borderopacity="1.0"
     inkscape:pageopacity="0.0"
     inkscape:pageshadow="2"
     inkscape:zoom="0.7"
     inkscape:cx="104.8489"
     inkscape:cy="-209.09445"
     inkscape:document-units="px"
     inkscape:current-layer="layer1"
     showgrid="false"
     inkscape:window-width="1366"
     inkscape:window-height="705"
     inkscape:window-x="-8"
     inkscape:window-y="-8"
     inkscape:window-maximized="1"
     fit-margin-top="0"
     fit-margin-left="0"
     fit-margin-right="0"
     fit-margin-bottom="0" />
  <metadata
     id="metadata7">
    <rdf:RDF>
      <cc:Work
         rdf:about="">
        <dc:format>image/svg+xml</dc:format>
        <dc:type
           rdf:resource="http://purl.org/dc/dcmitype/StillImage" />
        <dc:title></dc:title>
      </cc:Work>
    </rdf:RDF>
  </metadata>
  <g
     inkscape:label="Layer 1"
     inkscape:groupmode="layer"
     id="layer1"
     transform="translate(-188.57143,-80.933613)">
    <path
       sodipodi:type="arc"
       style="fill:#000000;fill-opacity:1;stroke:none"
       id="path2985"
       sodipodi:cx="230"
       sodipodi:cy="122.36218"
       sodipodi:rx="41.42857"
       sodipodi:ry="41.42857"
       d="m 271.42857,122.36218 c 0,22.88037 -18.5482,41.42857 -41.42857,41.42857 -22.88037,0 -41.42857,-18.5482 -41.42857,-41.42857 0,-22.880365 18.5482,-41.428567 41.42857,-41.428567 22.88037,0 41.42857,18.548202 41.42857,41.428567 z" />
    <path
       sodipodi:type="arc"
       style="fill:#f0fbde;fill-opacity:1;stroke:none"
       id="path2987"
       sodipodi:cx="231.42857"
       sodipodi:cy="122.36218"
       sodipodi:rx="20"
       sodipodi:ry="21.428572"
       d="m 251.42857,122.36218 c 0,11.83468 -8.9543,21.42857 -20,21.42857 -11.04569,0 -20,-9.59389 -20,-21.42857 0,-11.83467 8.95431,-21.42857 20,-21.42857 11.0457,0 20,9.5939 20,21.42857 z"
       transform="matrix(1.5714286,0,0,1.6666666,-129.38775,-81.574787)"
       inkscape:transform-center-x="122.85714"
       inkscape:transform-center-y="-102.85714" />
    <path
       sodipodi:type="arc"
       style="fill:#000000;fill-opacity:1;stroke:none"
       id="path4831"
       sodipodi:cx="312.14285"
       sodipodi:cy="150.21933"
       sodipodi:rx="47.857143"
       sodipodi:ry="7.8571429"
       d="m 360,150.21933 c 0,4.33938 -21.42638,7.85714 -47.85715,7.85714 -26.43077,0 -47.85714,-3.51776 -47.85714,-7.85714 0,-4.33938 21.42637,-7.85714 47.85714,-7.85714 26.43077,0 47.85715,3.51776 47.85715,7.85714 z"
       transform="matrix(1,0.29850746,0,1,0,-93.17697)" />
  </g>
</svg>
